# xmcd
#
# Track frame offsets: 
#        150
#        14683
#        26502
#        34756
#        50307
#        59741
#        75914
#        89084
#        105401
#        114758
#
# Disc length: 1661 seconds
#
# Revision: 0
# Processed by: cddbd v1.5.2PL0 Copyright (c) Steve Scherf et al.
# Submitted via: ExactAudioCopy v0.99pb1
#
DISCID=74067b0a
DTITLE=Boxcar Willie - Take Me Home
DYEAR=1980
DGENRE=Country
TTITLE0=Take Me Home
TTITLE1=Cold Windy City of Chicago
TTITLE2=Lonesome Hobo
TTITLE3=Trouble
TTITLE4=Hank, You Still Make Me Cry
TTITLE5=Train Medley
TTITLE6=From a Rolls To The Rails
TTITLE7=From a Boxcar Door
TTITLE8=I Wake Up Every Morning With a Smile On My Face
TTITLE9=I Remember Roy Rogers
EXTD=
EXTT0=
EXTT1=
EXTT2=
EXTT3=
EXTT4=
EXTT5=
EXTT6=
EXTT7=
EXTT8=
EXTT9=
PLAYORDER=
